<svg version="1.1" id="Layer_1" xmlns="http://www.w3.org/2000/svg" xmlns:xlink="http://www.w3.org/1999/xlink" x="0px" y="0px"
	 width="100%" viewBox="0 0 769 346" enable-background="new 0 0 769 346" xml:space="preserve">
<path fill="#000000" opacity="1.000000" stroke="none" 
	d="
M568.000000,347.000000 
	C378.708984,347.000000 189.917953,347.000000 1.063463,347.000000 
	C1.063463,231.734848 1.063463,116.469650 1.063463,1.102225 
	C257.333313,1.102225 513.666626,1.102225 769.977173,1.102225 
	C769.977173,116.415428 769.977173,231.707718 769.977173,347.000000 
	C702.802917,347.000000 635.651489,347.000000 568.000000,347.000000 
M463.500000,290.000000 
	C554.591980,290.000000 645.683960,290.000000 736.715942,290.000000 
	C736.715942,282.683685 736.715942,275.939423 736.715942,269.286530 
	C733.346680,269.286530 730.267883,269.286530 726.811584,269.286530 
	C726.811584,272.649658 726.811584,275.728485 726.811584,278.719635 
	C500.681641,278.719635 274.946808,278.719635 48.822426,278.719635 
	C48.822426,275.362213 48.822426,272.273834 48.822426,269.288239 
	C45.019073,269.288239 41.612068,269.288239 38.291996,269.288239 
	C38.291996,276.320160 38.291996,283.059631 38.291996,290.000000 
	C179.889252,290.000000 321.194641,290.000000 463.500000,290.000000 
M276.500000,153.000000 
	C426.593903,153.000000 576.687805,153.000000 727.169922,153.000000 
	C727.169922,156.633911 727.169922,159.717056 727.169922,162.715698 
	C730.640991,162.715698 733.715027,162.715698 736.711304,162.715698 
	C736.711304,156.021179 736.711304,149.614273 736.711304,143.280823 
	C503.692078,143.280823 270.961731,143.280823 38.282326,143.280823 
	C38.282326,149.974213 38.282326,156.382172 38.282326,162.716400 
	C41.982960,162.716400 45.394138,162.716400 49.182617,162.716400 
	C49.182617,159.356674 49.182617,156.277710 49.182617,153.000000 
	C124.884308,153.000000 200.192154,153.000000 276.500000,153.000000 
M266.518951,175.012039 
	C263.727173,166.000000 263.727173,166.000000 254.293015,166.000000 
	C252.960510,166.000000 251.627991,166.000000 250.295486,166.000000 
	C242.546127,166.000000 234.796783,166.000000 227.152740,166.000000 
	C227.152740,169.677048 227.152740,172.651733 227.152740,175.626419 
	C227.511444,175.274017 227.870132,174.921600 228.228836,174.569199 
	C230.762466,176.561829 234.004913,178.110138 235.616287,180.680847 
	C237.028580,182.933945 236.931076,186.332855 236.947617,189.228806 
	C237.051224,207.383667 237.014923,225.539413 236.993561,243.694855 
	C236.983276,252.433228 235.250977,254.676712 227.179001,256.715698 
	C227.179001,259.683289 227.179001,262.632446 227.179001,265.651733 
	C237.221100,265.651733 247.080490,265.651733 257.076263,265.651733 
	C256.457733,261.431641 259.308411,256.048920 251.992172,255.285706 
	C250.858032,255.167389 249.255493,252.656860 249.110291,251.134262 
	C248.487335,244.602203 248.132721,238.028549 248.043259,231.465103 
	C247.887634,220.046844 248.000000,208.624939 248.000000,197.204544 
	C248.419296,197.068222 248.838608,196.931885 249.257904,196.795563 
	C249.884140,198.018265 250.656464,199.188782 251.114792,200.471481 
	C258.441315,220.975754 265.684265,241.510132 273.109467,261.978455 
	C273.677399,263.544006 275.391357,265.715088 276.705078,265.812164 
	C282.423309,266.234741 288.190582,265.993652 294.000000,265.993652 
	C294.000000,239.647598 293.989075,214.000992 294.006012,188.354370 
	C294.011871,179.507523 295.806549,177.176163 303.655151,175.359299 
	C303.655151,172.234711 303.655151,169.167236 303.655151,166.333588 
	C293.232605,166.333588 283.156982,166.333588 273.304443,166.333588 
	C273.304443,169.758423 273.304443,172.845261 273.304443,175.910492 
	C280.107452,176.094070 282.770874,178.616211 282.947998,185.561737 
	C283.164429,194.050964 283.031860,202.550247 282.951294,211.044235 
	C282.942505,211.972473 282.282013,212.894531 281.923828,213.819458 
	C281.472992,213.864563 281.022186,213.909683 280.571381,213.954788 
	C276.035675,201.201599 271.500000,188.448425 266.518951,175.012039 
M341.935272,262.414459 
	C348.585785,266.479431 355.851257,267.427399 363.506989,267.050415 
	C371.403381,266.661530 377.256104,262.787811 381.981628,256.905914 
	C387.134674,250.491837 388.080902,242.977692 388.124725,234.926727 
	C388.203247,220.497208 380.121277,210.562958 367.444885,206.007339 
	C361.730988,203.953903 355.933044,202.125610 350.264465,199.956787 
	C342.751984,197.082474 339.423492,191.225891 341.926880,183.200562 
	C343.598328,177.842194 351.066711,173.399536 358.221283,176.044235 
	C367.611847,179.515427 373.681122,185.976166 375.363739,195.798096 
	C378.411285,195.798096 381.023834,195.798096 383.797729,195.798096 
	C383.797729,185.850800 383.797729,176.105774 383.797729,166.109299 
	C380.984100,166.109299 377.659973,165.090149 375.895721,166.315994 
	C371.905457,169.088577 368.645508,167.304611 364.862610,166.490097 
	C353.167389,163.971939 341.653229,163.025604 331.586426,171.746017 
	C324.133362,178.202240 322.818390,186.457275 322.868866,195.729797 
	C322.932861,207.471558 329.914276,218.668686 342.062988,223.149658 
	C349.240723,225.797134 356.089752,229.440140 362.852722,233.071091 
	C367.388184,235.506104 369.498444,242.858826 367.734680,247.780869 
	C366.174042,252.136108 359.465576,255.906067 354.461243,254.962677 
	C340.612366,252.352066 333.710602,244.374756 330.504700,232.270020 
	C327.737366,232.270020 324.989563,232.270020 322.259247,232.270020 
	C322.259247,243.621750 322.259247,254.701508 322.259247,266.951324 
	C325.624603,265.919861 329.135071,265.805542 331.141846,264.010345 
	C334.402924,261.093079 337.308411,259.965942 341.935272,262.414459 
M124.969612,181.362167 
	C128.733505,176.763428 128.354065,171.512634 127.714767,166.305389 
	C106.299469,166.305389 85.238960,166.305389 64.296326,166.305389 
	C64.296326,177.351990 64.296326,188.091003 64.296326,198.707855 
	C67.680557,198.707855 70.762123,198.707855 74.000084,198.707855 
	C74.000084,196.600525 73.940613,194.782104 74.009895,192.968628 
	C74.408295,182.541077 78.062393,179.000137 88.372307,179.000015 
	C90.204239,178.999985 92.036163,178.999146 93.868095,179.000153 
	C101.135437,179.004150 102.308487,180.752655 98.931587,187.293701 
	C95.099815,194.715881 91.025978,202.015366 86.958771,209.313232 
	C80.465950,220.963379 73.683968,232.457870 67.432724,244.235001 
	C63.895588,250.898819 58.468971,257.281433 61.587502,265.695160 
	C83.700432,265.695160 105.760345,265.695160 127.702484,265.695160 
	C127.702484,254.650848 127.702484,243.913620 127.702484,233.298706 
	C123.991608,233.298706 120.584244,233.298706 117.000000,233.298706 
	C117.000000,236.574142 116.877602,239.560349 117.027161,242.532852 
	C117.286079,247.679123 115.295631,251.351288 110.004784,251.947845 
	C103.821007,252.645096 97.555573,252.960144 91.338432,252.829269 
	C89.232010,252.784943 86.980995,251.009705 88.548866,247.914795 
	C91.588799,241.914108 94.397705,235.787384 97.649139,229.904556 
	C106.505875,213.880051 115.543327,197.955444 124.969612,181.362167 
M520.911926,256.640320 
	C520.504211,259.619507 520.096436,262.598694 519.658386,265.799469 
	C533.484558,265.799469 546.554871,265.799469 559.999207,265.799469 
	C559.999207,263.152252 560.139954,260.686707 559.923950,258.252777 
	C559.846741,257.382874 559.044922,256.022156 558.338623,255.849930 
	C552.006409,254.305923 550.497192,248.639053 549.187988,243.849686 
	C543.770203,224.030258 538.991943,204.036041 533.978333,184.106125 
	C532.645996,178.809784 532.462585,172.786133 529.688782,168.401337 
	C526.198792,162.884277 519.409180,167.187500 514.209412,166.042175 
	C513.931824,165.981049 513.588074,166.220764 513.239868,166.331635 
	C506.492920,191.403748 499.956573,216.551529 492.839905,241.534012 
	C491.069061,247.750427 489.546265,255.102997 481.318787,256.341949 
	C481.318787,259.703583 481.318787,262.779236 481.318787,265.697998 
	C492.710541,265.697998 503.781433,265.697998 514.889038,265.697998 
	C514.889038,262.424744 514.889038,259.453979 514.889038,256.483215 
	C514.514343,256.771790 514.139709,257.060333 513.765015,257.348877 
	C511.534485,254.950684 508.195557,252.882599 507.357697,250.069580 
	C506.340851,246.655624 507.326294,242.603699 507.645355,238.844788 
	C507.981384,234.886658 510.128693,233.474731 514.192627,233.904526 
	C518.291321,234.337967 522.471558,234.000000 526.547913,234.000000 
	C527.365540,236.718307 528.207886,239.129501 528.812256,241.598923 
	C530.938721,250.288055 528.909912,254.257034 520.911926,256.640320 
M174.000000,234.495087 
	C174.000000,229.396698 174.000000,224.298325 174.000000,218.815155 
	C179.654617,218.815155 184.737183,218.815155 189.704437,218.815155 
	C189.704437,214.670319 189.704437,210.929016 189.704437,206.802185 
	C184.335037,206.802185 179.255371,206.802185 174.000458,206.802185 
	C174.000458,199.422058 173.777908,192.431656 174.089874,185.465179 
	C174.257874,181.713257 175.423279,178.292435 179.883286,176.914886 
	C186.862930,174.759125 193.606781,178.055435 195.835312,186.041718 
	C197.162521,190.798019 197.027679,195.962280 197.518433,200.640930 
	C201.121185,200.640930 204.525513,200.640930 207.640182,200.640930 
	C207.640182,188.873718 207.640182,177.467148 207.640182,166.357086 
	C186.539566,166.357086 165.799530,166.357086 145.000000,166.357086 
	C145.000000,168.213257 145.000000,169.712372 145.000000,171.211487 
	C145.000000,172.785995 145.000000,174.360504 145.000000,175.908218 
	C152.576141,176.098145 154.981644,178.653214 154.991333,186.024933 
	C155.016937,205.522171 155.000031,225.019470 154.999985,244.516739 
	C154.999969,254.125061 154.228683,255.074631 145.281433,256.535339 
	C145.281433,259.627960 145.281433,262.705353 145.281433,265.716766 
	C166.301407,265.716766 187.038712,265.716766 207.716675,265.716766 
	C207.716675,253.690399 207.716675,241.949387 207.716675,230.286896 
	C204.019409,230.286896 200.611710,230.286896 197.000000,230.286896 
	C197.000000,233.716461 197.497055,236.963181 196.877319,239.980515 
	C196.056625,243.976227 195.062759,248.248276 192.890320,251.586014 
	C189.007202,257.552032 177.216202,256.283051 175.117889,249.619186 
	C173.734940,245.227158 174.304626,240.220291 174.000000,234.495087 
M715.000000,240.521667 
	C715.000000,237.081894 715.000000,233.642105 715.000000,230.277618 
	C711.034363,230.277618 707.627808,230.277618 704.000000,230.277618 
	C704.000000,233.860489 704.083740,237.170639 703.980286,240.474930 
	C703.828003,245.337433 702.560791,249.707138 698.539856,252.973969 
	C692.553833,257.837280 681.891785,255.296600 681.304504,248.232346 
	C680.500854,238.564529 681.103699,228.779785 681.103699,218.840302 
	C686.356384,218.840302 690.978699,218.840302 695.796021,218.840302 
	C695.796021,214.882950 695.796021,211.146027 695.796021,207.011993 
	C690.889648,207.011993 686.139648,207.011993 681.003662,207.011993 
	C681.003662,199.006882 680.563660,191.350311 681.259583,183.798401 
	C681.481506,181.389908 684.285583,178.483093 686.662781,177.156982 
	C692.265076,174.031784 700.512268,178.736328 701.924927,184.525101 
	C703.216187,189.816437 703.895142,195.257217 704.865601,200.755112 
	C707.895813,200.755112 711.299744,200.755112 714.757629,200.755112 
	C714.757629,189.107941 714.757629,177.707077 714.757629,166.230255 
	C693.781738,166.230255 673.049011,166.230255 652.198792,166.230255 
	C652.198792,169.557114 652.198792,172.651321 652.198792,175.728516 
	C658.932922,176.233505 660.499756,177.511948 661.862488,183.776016 
	C662.140015,185.051559 661.995117,186.425323 661.995544,187.753830 
	C662.002014,206.741882 662.001221,225.729935 661.999390,244.717987 
	C661.998596,253.338333 660.514465,255.131073 652.293274,256.554230 
	C652.293274,259.653351 652.293274,262.730164 652.293274,265.716156 
	C673.317627,265.716156 694.047546,265.716156 715.000000,265.716156 
	C715.000000,257.461884 715.000000,249.489502 715.000000,240.521667 
M406.000000,198.438263 
	C406.000000,200.878311 406.000000,203.318375 406.000000,205.736771 
	C409.602753,205.736771 412.675201,205.736771 416.000000,205.736771 
	C416.000000,202.171921 415.476685,198.761719 416.117920,195.586716 
	C417.181885,190.318649 418.229675,184.791550 420.722046,180.144745 
	C422.906769,176.071518 427.127686,176.876740 428.952148,181.333359 
	C430.141602,184.238846 430.881714,187.540161 430.912598,190.673141 
	C431.091553,208.826309 431.003632,226.982117 430.998322,245.137039 
	C430.995941,253.294159 429.226990,255.345963 421.263458,256.497559 
	C421.263458,259.586731 421.263458,262.666809 421.263458,265.743469 
	C434.266632,265.743469 447.004730,265.743469 459.783691,265.743469 
	C459.783691,262.384430 459.783691,259.284424 459.783691,256.199249 
	C453.134674,255.828217 450.059967,253.461304 450.036865,248.286087 
	C449.946899,228.132874 449.873627,207.977509 450.110626,187.826675 
	C450.156036,183.964218 450.460632,178.868179 455.558960,178.183792 
	C460.724976,177.490311 462.231171,182.103363 462.956055,186.097305 
	C464.137787,192.607941 464.764038,199.219406 465.614197,205.708344 
	C468.657898,205.708344 471.728699,205.708344 474.712891,205.708344 
	C474.712891,192.347870 474.712891,179.280960 474.712891,166.275848 
	C451.696167,166.275848 428.967651,166.275848 406.000000,166.275848 
	C406.000000,176.851730 406.000000,187.153534 406.000000,198.438263 
M622.977295,182.761551 
	C624.298767,190.380692 625.620300,197.999832 626.965271,205.754364 
	C629.563110,205.754364 632.635132,205.754364 635.752014,205.754364 
	C635.752014,192.436569 635.752014,179.365829 635.752014,166.245941 
	C612.768921,166.245941 590.034546,166.245941 567.244019,166.245941 
	C567.244019,179.566162 567.244019,192.639099 567.244019,205.754623 
	C570.565674,205.754623 573.638123,205.754623 577.000000,205.754623 
	C577.000000,202.211456 576.480164,198.805588 577.117126,195.631866 
	C578.175293,190.359116 579.211121,184.827316 581.694458,180.171722 
	C583.875977,176.081970 588.119934,176.861649 589.946106,181.299500 
	C591.141113,184.203430 591.881409,187.508026 591.912354,190.642181 
	C592.091797,208.802246 592.003601,226.964996 591.998413,245.126831 
	C591.996094,253.298218 590.228149,255.350739 582.263550,256.494843 
	C582.263550,259.584778 582.263550,262.665833 582.263550,265.738434 
	C595.270508,265.738434 608.012268,265.738434 621.000000,265.738434 
	C621.000000,264.005768 621.000000,262.532654 621.000000,261.059509 
	C621.000000,259.428955 621.000000,257.798370 621.000000,256.194061 
	C613.137695,255.789780 611.001099,253.465744 611.000427,245.762955 
	C610.998962,227.601120 610.961060,209.439102 611.044250,191.277649 
	C611.055969,188.712296 611.186646,185.954147 612.134644,183.643143 
	C613.008423,181.513016 614.877136,178.607056 616.636963,178.356537 
	C618.405579,178.104752 620.580627,180.707977 622.977295,182.761551 
M432.000000,66.500000 
	C432.000000,58.506351 432.188080,50.504990 431.860748,42.524757 
	C431.784027,40.654518 430.400421,37.845387 428.875031,37.185246 
	C417.417542,32.226898 405.873138,27.421482 394.123138,23.218996 
	C390.948273,22.083471 386.677979,22.309414 383.420959,23.414677 
	C372.365601,27.166267 361.609985,31.795683 350.582336,35.637611 
	C347.155273,36.831562 345.899689,38.355175 345.941437,41.887253 
	C346.090942,54.542137 346.463440,67.222687 345.841583,79.848709 
	C345.406952,88.673698 346.737366,95.405495 355.345673,100.204613 
	C360.954285,103.331421 365.737457,106.534973 372.705963,106.179138 
	C385.163574,105.543007 397.678864,106.110374 410.165558,105.904320 
	C412.582794,105.864433 415.239990,105.025505 417.326324,103.782684 
	C420.649872,101.802879 423.341248,98.700508 426.746765,96.934387 
	C431.521271,94.458305 432.303528,90.769554 432.072174,85.981888 
	C431.775146,79.834450 432.000000,73.661789 432.000000,66.500000 
z"/>
<path fill="#FFFFFF" opacity="1.000000" stroke="none" 
	d="
M463.000000,290.000000 
	C321.194641,290.000000 179.889252,290.000000 38.291996,290.000000 
	C38.291996,283.059631 38.291996,276.320160 38.291996,269.288239 
	C41.612068,269.288239 45.019073,269.288239 48.822426,269.288239 
	C48.822426,272.273834 48.822426,275.362213 48.822426,278.719635 
	C274.946808,278.719635 500.681641,278.719635 726.811584,278.719635 
	C726.811584,275.728485 726.811584,272.649658 726.811584,269.286530 
	C730.267883,269.286530 733.346680,269.286530 736.715942,269.286530 
	C736.715942,275.939423 736.715942,282.683685 736.715942,290.000000 
	C645.683960,290.000000 554.591980,290.000000 463.000000,290.000000 
z"/>
<path fill="#FFFFFF" opacity="1.000000" stroke="none" 
	d="
M276.000000,153.000000 
	C200.192154,153.000000 124.884308,153.000000 49.182617,153.000000 
	C49.182617,156.277710 49.182617,159.356674 49.182617,162.716400 
	C45.394138,162.716400 41.982960,162.716400 38.282326,162.716400 
	C38.282326,156.382172 38.282326,149.974213 38.282326,143.280823 
	C270.961731,143.280823 503.692078,143.280823 736.711304,143.280823 
	C736.711304,149.614273 736.711304,156.021179 736.711304,162.715698 
	C733.715027,162.715698 730.640991,162.715698 727.169922,162.715698 
	C727.169922,159.717056 727.169922,156.633911 727.169922,153.000000 
	C576.687805,153.000000 426.593903,153.000000 276.000000,153.000000 
z"/>
<path fill="#FFFFFF" opacity="1.000000" stroke="none" 
	d="
M266.741638,175.353638 
	C271.500000,188.448425 276.035675,201.201599 280.571381,213.954788 
	C281.022186,213.909683 281.472992,213.864563 281.923828,213.819458 
	C282.282013,212.894531 282.942505,211.972473 282.951294,211.044235 
	C283.031860,202.550247 283.164429,194.050964 282.947998,185.561737 
	C282.770874,178.616211 280.107452,176.094070 273.304443,175.910492 
	C273.304443,172.845261 273.304443,169.758423 273.304443,166.333588 
	C283.156982,166.333588 293.232605,166.333588 303.655151,166.333588 
	C303.655151,169.167236 303.655151,172.234711 303.655151,175.359299 
	C295.806549,177.176163 294.011871,179.507523 294.006012,188.354370 
	C293.989075,214.000992 294.000000,239.647598 294.000000,265.993652 
	C288.190582,265.993652 282.423309,266.234741 276.705078,265.812164 
	C275.391357,265.715088 273.677399,263.544006 273.109467,261.978455 
	C265.684265,241.510132 258.441315,220.975754 251.114792,200.471481 
	C250.656464,199.188782 249.884140,198.018265 249.257904,196.795563 
	C248.838608,196.931885 248.419296,197.068222 248.000000,197.204544 
	C248.000000,208.624939 247.887634,220.046844 248.043259,231.465103 
	C248.132721,238.028549 248.487335,244.602203 249.110291,251.134262 
	C249.255493,252.656860 250.858032,255.167389 251.992172,255.285706 
	C259.308411,256.048920 256.457733,261.431641 257.076263,265.651733 
	C247.080490,265.651733 237.221100,265.651733 227.179001,265.651733 
	C227.179001,262.632446 227.179001,259.683289 227.179001,256.715698 
	C235.250977,254.676712 236.983276,252.433228 236.993561,243.694855 
	C237.014923,225.539413 237.051224,207.383667 236.947617,189.228806 
	C236.931076,186.332855 237.028580,182.933945 235.616287,180.680847 
	C234.004913,178.110138 230.762466,176.561829 228.228836,174.569199 
	C227.870132,174.921600 227.511444,175.274017 227.152740,175.626419 
	C227.152740,172.651733 227.152740,169.677048 227.152740,166.000000 
	C234.796783,166.000000 242.546127,166.000000 250.295486,166.000000 
	C251.627991,166.000000 252.960510,166.000000 254.293015,166.000000 
	C263.727173,166.000000 263.727173,166.000000 266.741638,175.353638 
z"/>
<path fill="#FFFFFF" opacity="1.000000" stroke="none" 
	d="
M341.578125,262.218597 
	C337.308411,259.965942 334.402924,261.093079 331.141846,264.010345 
	C329.135071,265.805542 325.624603,265.919861 322.259247,266.951324 
	C322.259247,254.701508 322.259247,243.621750 322.259247,232.270020 
	C324.989563,232.270020 327.737366,232.270020 330.504700,232.270020 
	C333.710602,244.374756 340.612366,252.352066 354.461243,254.962677 
	C359.465576,255.906067 366.174042,252.136108 367.734680,247.780869 
	C369.498444,242.858826 367.388184,235.506104 362.852722,233.071091 
	C356.089752,229.440140 349.240723,225.797134 342.062988,223.149658 
	C329.914276,218.668686 322.932861,207.471558 322.868866,195.729797 
	C322.818390,186.457275 324.133362,178.202240 331.586426,171.746017 
	C341.653229,163.025604 353.167389,163.971939 364.862610,166.490097 
	C368.645508,167.304611 371.905457,169.088577 375.895721,166.315994 
	C377.659973,165.090149 380.984100,166.109299 383.797729,166.109299 
	C383.797729,176.105774 383.797729,185.850800 383.797729,195.798096 
	C381.023834,195.798096 378.411285,195.798096 375.363739,195.798096 
	C373.681122,185.976166 367.611847,179.515427 358.221283,176.044235 
	C351.066711,173.399536 343.598328,177.842194 341.926880,183.200562 
	C339.423492,191.225891 342.751984,197.082474 350.264465,199.956787 
	C355.933044,202.125610 361.730988,203.953903 367.444885,206.007339 
	C380.121277,210.562958 388.203247,220.497208 388.124725,234.926727 
	C388.080902,242.977692 387.134674,250.491837 381.981628,256.905914 
	C377.256104,262.787811 371.403381,266.661530 363.506989,267.050415 
	C355.851257,267.427399 348.585785,266.479431 341.578125,262.218597 
z"/>
<path fill="#FFFFFF" opacity="1.000000" stroke="none" 
	d="
M124.739395,181.676712 
	C115.543327,197.955444 106.505875,213.880051 97.649139,229.904556 
	C94.397705,235.787384 91.588799,241.914108 88.548866,247.914795 
	C86.980995,251.009705 89.232010,252.784943 91.338432,252.829269 
	C97.555573,252.960144 103.821007,252.645096 110.004784,251.947845 
	C115.295631,251.351288 117.286079,247.679123 117.027161,242.532852 
	C116.877602,239.560349 117.000000,236.574142 117.000000,233.298706 
	C120.584244,233.298706 123.991608,233.298706 127.702484,233.298706 
	C127.702484,243.913620 127.702484,254.650848 127.702484,265.695160 
	C105.760345,265.695160 83.700432,265.695160 61.587502,265.695160 
	C58.468971,257.281433 63.895588,250.898819 67.432724,244.235001 
	C73.683968,232.457870 80.465950,220.963379 86.958771,209.313232 
	C91.025978,202.015366 95.099815,194.715881 98.931587,187.293701 
	C102.308487,180.752655 101.135437,179.004150 93.868095,179.000153 
	C92.036163,178.999146 90.204239,178.999985 88.372307,179.000015 
	C78.062393,179.000137 74.408295,182.541077 74.009895,192.968628 
	C73.940613,194.782104 74.000084,196.600525 74.000084,198.707855 
	C70.762123,198.707855 67.680557,198.707855 64.296326,198.707855 
	C64.296326,188.091003 64.296326,177.351990 64.296326,166.305389 
	C85.238960,166.305389 106.299469,166.305389 127.714767,166.305389 
	C128.354065,171.512634 128.733505,176.763428 124.739395,181.676712 
z"/>
<path fill="#FFFFFF" opacity="1.000000" stroke="none" 
	d="
M521.225769,256.347229 
	C528.909912,254.257034 530.938721,250.288055 528.812256,241.598923 
	C528.207886,239.129501 527.365540,236.718307 526.547913,234.000000 
	C522.471558,234.000000 518.291321,234.337967 514.192627,233.904526 
	C510.128693,233.474731 507.981384,234.886658 507.645355,238.844788 
	C507.326294,242.603699 506.340851,246.655624 507.357697,250.069580 
	C508.195557,252.882599 511.534485,254.950684 513.765015,257.348877 
	C514.139709,257.060333 514.514343,256.771790 514.889038,256.483215 
	C514.889038,259.453979 514.889038,262.424744 514.889038,265.697998 
	C503.781433,265.697998 492.710541,265.697998 481.318787,265.697998 
	C481.318787,262.779236 481.318787,259.703583 481.318787,256.341949 
	C489.546265,255.102997 491.069061,247.750427 492.839905,241.534012 
	C499.956573,216.551529 506.492920,191.403748 513.239868,166.331635 
	C513.588074,166.220764 513.931824,165.981049 514.209412,166.042175 
	C519.409180,167.187500 526.198792,162.884277 529.688782,168.401337 
	C532.462585,172.786133 532.645996,178.809784 533.978333,184.106125 
	C538.991943,204.036041 543.770203,224.030258 549.187988,243.849686 
	C550.497192,248.639053 552.006409,254.305923 558.338623,255.849930 
	C559.044922,256.022156 559.846741,257.382874 559.923950,258.252777 
	C560.139954,260.686707 559.999207,263.152252 559.999207,265.799469 
	C546.554871,265.799469 533.484558,265.799469 519.658386,265.799469 
	C520.096436,262.598694 520.504211,259.619507 521.225769,256.347229 
M520.367065,218.999756 
	C523.801758,219.504745 523.260010,216.936066 522.929871,215.213516 
	C522.013550,210.431641 520.768066,205.712845 519.652588,200.969116 
	C519.089233,200.878876 518.525940,200.788635 517.962585,200.698380 
	C516.290100,206.668945 514.617615,212.639511 512.835876,219.000000 
	C515.494995,219.000000 517.468994,219.000000 520.367065,218.999756 
z"/>
<path fill="#FFFFFF" opacity="1.000000" stroke="none" 
	d="
M174.000000,234.991913 
	C174.304626,240.220291 173.734940,245.227158 175.117889,249.619186 
	C177.216202,256.283051 189.007202,257.552032 192.890320,251.586014 
	C195.062759,248.248276 196.056625,243.976227 196.877319,239.980515 
	C197.497055,236.963181 197.000000,233.716461 197.000000,230.286896 
	C200.611710,230.286896 204.019409,230.286896 207.716675,230.286896 
	C207.716675,241.949387 207.716675,253.690399 207.716675,265.716766 
	C187.038712,265.716766 166.301407,265.716766 145.281433,265.716766 
	C145.281433,262.705353 145.281433,259.627960 145.281433,256.535339 
	C154.228683,255.074631 154.999969,254.125061 154.999985,244.516739 
	C155.000031,225.019470 155.016937,205.522171 154.991333,186.024933 
	C154.981644,178.653214 152.576141,176.098145 145.000000,175.908218 
	C145.000000,174.360504 145.000000,172.785995 145.000000,171.211487 
	C145.000000,169.712372 145.000000,168.213257 145.000000,166.357086 
	C165.799530,166.357086 186.539566,166.357086 207.640182,166.357086 
	C207.640182,177.467148 207.640182,188.873718 207.640182,200.640930 
	C204.525513,200.640930 201.121185,200.640930 197.518433,200.640930 
	C197.027679,195.962280 197.162521,190.798019 195.835312,186.041718 
	C193.606781,178.055435 186.862930,174.759125 179.883286,176.914886 
	C175.423279,178.292435 174.257874,181.713257 174.089874,185.465179 
	C173.777908,192.431656 174.000458,199.422058 174.000458,206.802185 
	C179.255371,206.802185 184.335037,206.802185 189.704437,206.802185 
	C189.704437,210.929016 189.704437,214.670319 189.704437,218.815155 
	C184.737183,218.815155 179.654617,218.815155 174.000000,218.815155 
	C174.000000,224.298325 174.000000,229.396698 174.000000,234.991913 
z"/>
<path fill="#FFFFFF" opacity="1.000000" stroke="none" 
	d="
M715.000000,241.019394 
	C715.000000,249.489502 715.000000,257.461884 715.000000,265.716156 
	C694.047546,265.716156 673.317627,265.716156 652.293274,265.716156 
	C652.293274,262.730164 652.293274,259.653351 652.293274,256.554230 
	C660.514465,255.131073 661.998596,253.338333 661.999390,244.717987 
	C662.001221,225.729935 662.002014,206.741882 661.995544,187.753830 
	C661.995117,186.425323 662.140015,185.051559 661.862488,183.776016 
	C660.499756,177.511948 658.932922,176.233505 652.198792,175.728516 
	C652.198792,172.651321 652.198792,169.557114 652.198792,166.230255 
	C673.049011,166.230255 693.781738,166.230255 714.757629,166.230255 
	C714.757629,177.707077 714.757629,189.107941 714.757629,200.755112 
	C711.299744,200.755112 707.895813,200.755112 704.865601,200.755112 
	C703.895142,195.257217 703.216187,189.816437 701.924927,184.525101 
	C700.512268,178.736328 692.265076,174.031784 686.662781,177.156982 
	C684.285583,178.483093 681.481506,181.389908 681.259583,183.798401 
	C680.563660,191.350311 681.003662,199.006882 681.003662,207.011993 
	C686.139648,207.011993 690.889648,207.011993 695.796021,207.011993 
	C695.796021,211.146027 695.796021,214.882950 695.796021,218.840302 
	C690.978699,218.840302 686.356384,218.840302 681.103699,218.840302 
	C681.103699,228.779785 680.500854,238.564529 681.304504,248.232346 
	C681.891785,255.296600 692.553833,257.837280 698.539856,252.973969 
	C702.560791,249.707138 703.828003,245.337433 703.980286,240.474930 
	C704.083740,237.170639 704.000000,233.860489 704.000000,230.277618 
	C707.627808,230.277618 711.034363,230.277618 715.000000,230.277618 
	C715.000000,233.642105 715.000000,237.081894 715.000000,241.019394 
z"/>
<path fill="#FFFFFF" opacity="1.000000" stroke="none" 
	d="
M406.000000,197.946793 
	C406.000000,187.153534 406.000000,176.851730 406.000000,166.275848 
	C428.967651,166.275848 451.696167,166.275848 474.712891,166.275848 
	C474.712891,179.280960 474.712891,192.347870 474.712891,205.708344 
	C471.728699,205.708344 468.657898,205.708344 465.614197,205.708344 
	C464.764038,199.219406 464.137787,192.607941 462.956055,186.097305 
	C462.231171,182.103363 460.724976,177.490311 455.558960,178.183792 
	C450.460632,178.868179 450.156036,183.964218 450.110626,187.826675 
	C449.873627,207.977509 449.946899,228.132874 450.036865,248.286087 
	C450.059967,253.461304 453.134674,255.828217 459.783691,256.199249 
	C459.783691,259.284424 459.783691,262.384430 459.783691,265.743469 
	C447.004730,265.743469 434.266632,265.743469 421.263458,265.743469 
	C421.263458,262.666809 421.263458,259.586731 421.263458,256.497559 
	C429.226990,255.345963 430.995941,253.294159 430.998322,245.137039 
	C431.003632,226.982117 431.091553,208.826309 430.912598,190.673141 
	C430.881714,187.540161 430.141602,184.238846 428.952148,181.333359 
	C427.127686,176.876740 422.906769,176.071518 420.722046,180.144745 
	C418.229675,184.791550 417.181885,190.318649 416.117920,195.586716 
	C415.476685,198.761719 416.000000,202.171921 416.000000,205.736771 
	C412.675201,205.736771 409.602753,205.736771 406.000000,205.736771 
	C406.000000,203.318375 406.000000,200.878311 406.000000,197.946793 
z"/>
<path fill="#FFFFFF" opacity="1.000000" stroke="none" 
	d="
M622.777466,182.410828 
	C620.580627,180.707977 618.405579,178.104752 616.636963,178.356537 
	C614.877136,178.607056 613.008423,181.513016 612.134644,183.643143 
	C611.186646,185.954147 611.055969,188.712296 611.044250,191.277649 
	C610.961060,209.439102 610.998962,227.601120 611.000427,245.762955 
	C611.001099,253.465744 613.137695,255.789780 621.000000,256.194061 
	C621.000000,257.798370 621.000000,259.428955 621.000000,261.059509 
	C621.000000,262.532654 621.000000,264.005768 621.000000,265.738434 
	C608.012268,265.738434 595.270508,265.738434 582.263550,265.738434 
	C582.263550,262.665833 582.263550,259.584778 582.263550,256.494843 
	C590.228149,255.350739 591.996094,253.298218 591.998413,245.126831 
	C592.003601,226.964996 592.091797,208.802246 591.912354,190.642181 
	C591.881409,187.508026 591.141113,184.203430 589.946106,181.299500 
	C588.119934,176.861649 583.875977,176.081970 581.694458,180.171722 
	C579.211121,184.827316 578.175293,190.359116 577.117126,195.631866 
	C576.480164,198.805588 577.000000,202.211456 577.000000,205.754623 
	C573.638123,205.754623 570.565674,205.754623 567.244019,205.754623 
	C567.244019,192.639099 567.244019,179.566162 567.244019,166.245941 
	C590.034546,166.245941 612.768921,166.245941 635.752014,166.245941 
	C635.752014,179.365829 635.752014,192.436569 635.752014,205.754364 
	C632.635132,205.754364 629.563110,205.754364 626.965271,205.754364 
	C625.620300,197.999832 624.298767,190.380692 622.777466,182.410828 
z"/>
<path fill="#FFFFFF" opacity="1.000000" stroke="none" 
	d="
M432.000000,67.000000 
	C432.000000,73.661789 431.775146,79.834450 432.072174,85.981888 
	C432.303528,90.769554 431.521271,94.458305 426.746765,96.934387 
	C423.341248,98.700508 420.649872,101.802879 417.326324,103.782684 
	C415.239990,105.025505 412.582794,105.864433 410.165558,105.904320 
	C397.678864,106.110374 385.163574,105.543007 372.705963,106.179138 
	C365.737457,106.534973 360.954285,103.331421 355.345673,100.204613 
	C346.737366,95.405495 345.406952,88.673698 345.841583,79.848709 
	C346.463440,67.222687 346.090942,54.542137 345.941437,41.887253 
	C345.899689,38.355175 347.155273,36.831562 350.582336,35.637611 
	C361.609985,31.795683 372.365601,27.166267 383.420959,23.414677 
	C386.677979,22.309414 390.948273,22.083471 394.123138,23.218996 
	C405.873138,27.421482 417.417542,32.226898 428.875031,37.185246 
	C430.400421,37.845387 431.784027,40.654518 431.860748,42.524757 
	C432.188080,50.504990 432.000000,58.506351 432.000000,67.000000 
M368.000000,66.507904 
	C368.000031,75.818192 368.181915,85.133789 367.910065,94.436127 
	C367.802094,98.130829 369.593903,99.857559 372.622528,99.907349 
	C385.016815,100.111092 397.416412,99.992363 410.000000,99.992363 
	C410.000000,93.436630 410.073578,87.468941 409.982178,81.503784 
	C409.855896,73.260208 409.733551,65.011414 409.276459,56.783344 
	C409.203735,55.474018 407.408295,53.187973 406.373566,53.167599 
	C393.648346,52.917046 380.916504,53.004345 368.000000,53.004345 
	C368.000000,57.567116 368.000000,61.539051 368.000000,66.507904 
M404.452606,47.000000 
	C414.043976,47.000000 414.043976,47.000000 422.026276,40.824280 
	C413.635773,37.480515 405.522919,34.170757 397.345947,31.027843 
	C394.235199,29.832188 390.499817,27.484005 387.869751,28.301453 
	C377.091400,31.651434 366.629517,36.019619 355.653534,40.163136 
	C361.160004,44.695030 366.361938,47.650127 373.572296,47.166660 
	C383.495941,46.501266 393.497620,47.000000 404.452606,47.000000 
M352.000000,75.491318 
	C352.000000,78.982170 351.986481,82.473091 352.003265,85.963860 
	C352.026703,90.835030 356.630341,95.364487 361.999847,95.624901 
	C361.999847,81.993217 362.050690,68.370483 361.969543,54.748543 
	C361.944489,50.539139 356.790070,46.904655 352.000000,47.620930 
	C352.000000,56.560112 352.000000,65.527084 352.000000,75.491318 
M426.000000,56.560867 
	C426.000000,53.451866 426.000000,50.342865 426.000000,47.233864 
	C425.600983,46.939182 425.201935,46.644501 424.802917,46.349819 
	C421.868896,48.915646 416.569946,51.333897 416.399109,54.072132 
	C415.533844,67.938370 416.000854,81.887749 416.000854,95.892593 
	C422.226196,94.703812 425.999481,90.629318 425.999817,85.511703 
	C426.000458,76.188408 426.000000,66.865105 426.000000,56.560867 
z"/>
<path fill="#000000" opacity="1.000000" stroke="none" 
	d="
M519.905029,218.999878 
	C517.468994,219.000000 515.494995,219.000000 512.835876,219.000000 
	C514.617615,212.639511 516.290100,206.668945 517.962585,200.698380 
	C518.525940,200.788635 519.089233,200.878876 519.652588,200.969116 
	C520.768066,205.712845 522.013550,210.431641 522.929871,215.213516 
	C523.260010,216.936066 523.801758,219.504745 519.905029,218.999878 
z"/>
<path fill="#000000" opacity="1.000000" stroke="none" 
	d="
M368.000000,66.009445 
	C368.000000,61.539051 368.000000,57.567116 368.000000,53.004345 
	C380.916504,53.004345 393.648346,52.917046 406.373566,53.167599 
	C407.408295,53.187973 409.203735,55.474018 409.276459,56.783344 
	C409.733551,65.011414 409.855896,73.260208 409.982178,81.503784 
	C410.073578,87.468941 410.000000,93.436630 410.000000,99.992363 
	C397.416412,99.992363 385.016815,100.111092 372.622528,99.907349 
	C369.593903,99.857559 367.802094,98.130829 367.910065,94.436127 
	C368.181915,85.133789 368.000031,75.818192 368.000000,66.009445 
z"/>
<path fill="#000000" opacity="1.000000" stroke="none" 
	d="
M403.959229,47.000000 
	C393.497620,47.000000 383.495941,46.501266 373.572296,47.166660 
	C366.361938,47.650127 361.160004,44.695030 355.653534,40.163136 
	C366.629517,36.019619 377.091400,31.651434 387.869751,28.301453 
	C390.499817,27.484005 394.235199,29.832188 397.345947,31.027843 
	C405.522919,34.170757 413.635773,37.480515 422.026276,40.824280 
	C414.043976,47.000000 414.043976,47.000000 403.959229,47.000000 
z"/>
<path fill="#000000" opacity="1.000000" stroke="none" 
	d="
M352.000000,74.992691 
	C352.000000,65.527084 352.000000,56.560112 352.000000,47.620930 
	C356.790070,46.904655 361.944489,50.539139 361.969543,54.748543 
	C362.050690,68.370483 361.999847,81.993217 361.999847,95.624901 
	C356.630341,95.364487 352.026703,90.835030 352.003265,85.963860 
	C351.986481,82.473091 352.000000,78.982170 352.000000,74.992691 
z"/>
<path fill="#000000" opacity="1.000000" stroke="none" 
	d="
M426.000000,57.051338 
	C426.000000,66.865105 426.000458,76.188408 425.999817,85.511703 
	C425.999481,90.629318 422.226196,94.703812 416.000854,95.892593 
	C416.000854,81.887749 415.533844,67.938370 416.399109,54.072132 
	C416.569946,51.333897 421.868896,48.915646 424.802917,46.349819 
	C425.201935,46.644501 425.600983,46.939182 426.000000,47.233864 
	C426.000000,50.342865 426.000000,53.451866 426.000000,57.051338 
z"/>
</svg>